<?xml version="1.0" encoding="UTF-8"?>
<svg width="32px" height="30px" viewBox="0 0 32 30" version="1.1" xmlns="http://www.w3.org/2000/svg" xmlns:xlink="http://www.w3.org/1999/xlink">
    <!-- Generator: Sketch 63 (92445) - https://sketch.com -->
    <title>date</title>
    <desc>Created with Sketch.</desc>
    <g id="深色" stroke="none" stroke-width="1" fill="none" fill-rule="evenodd">
        <g id="a-11" transform="translate(-674.000000, -235.000000)" fill="#6C7390">
            <g id="分组-13-copy-3备份-7" transform="translate(20.000000, 214.000000)">
                <g id="分组-13-copy-2">
                    <path d="M674.716763,21 C675.367769,21 675.900671,21.5181409 675.900671,22.1515142 L675.900671,23.3028036 L680.043884,23.3028036 C683.299514,23.3028036 685.96296,25.8935982 685.96296,29.059925 L685.96296,45.18 C685.96296,48.3463718 683.299514,50.9371214 680.043884,50.9371214 L659.919075,50.9371214 C656.663676,50.9371214 654,48.3463718 654,45.18 L654,29.059925 C654,25.8935982 656.663676,23.3028036 659.919075,23.3028036 L664.06252,23.3028036 L664.06252,22.1515142 C664.06252,21.5181409 664.595191,21 665.246197,21 C665.897387,21 666.430104,21.5181409 666.430104,22.1515142 L666.430104,23.3028036 L673.532855,23.3028036 L673.532855,22.1515142 C673.532855,21.5181409 674.065757,21 674.716763,21 Z M683.595376,32.5142429 L656.367584,32.5142429 L656.367584,45.18 C656.367584,47.0797601 657.965873,48.634093 659.919075,48.634093 L680.043884,48.634093 C681.997272,48.634093 683.595376,47.0797601 683.595376,45.18 L683.595376,32.5142429 Z M677.812587,41.694532 C678.465622,41.694532 679,42.2087759 679,42.8372616 C679,43.4659258 678.465622,43.9802144 677.812587,43.9802144 L675.437668,43.9802144 C674.784447,43.9802144 674.250023,43.4659258 674.250023,42.8372616 C674.250023,42.2087759 674.784447,41.694532 675.437668,41.694532 L677.812587,41.694532 Z M670.687506,41.694532 C671.340727,41.694532 671.875058,42.2087759 671.875058,42.8372616 C671.875058,43.4659258 671.340727,43.9802144 670.687506,43.9802144 L668.312494,43.9802144 C667.659459,43.9802144 667.124942,43.4659258 667.124942,42.8372616 C667.124942,42.2087759 667.659459,41.694532 668.312494,41.694532 L670.687506,41.694532 Z M663.56261,41.694532 C664.215646,41.694532 664.749977,42.2087759 664.749977,42.8372616 C664.749977,43.4659258 664.215646,43.9802144 663.56261,43.9802144 L661.187413,43.9802144 C660.534378,43.9802144 660,43.4659258 660,42.8372616 C660,42.2087759 660.534378,41.694532 661.187413,41.694532 L663.56261,41.694532 Z M677.812587,35.9802144 C678.465622,35.9802144 679,36.4944583 679,37.122944 C679,37.7516082 678.465622,38.2658968 677.812587,38.2658968 L675.437668,38.2658968 C674.784447,38.2658968 674.250023,37.7516082 674.250023,37.122944 C674.250023,36.4944583 674.784447,35.9802144 675.437668,35.9802144 L677.812587,35.9802144 Z M670.687506,35.9802144 C671.340727,35.9802144 671.875058,36.4944583 671.875058,37.122944 C671.875058,37.7516082 671.340727,38.2658968 670.687506,38.2658968 L668.312494,38.2658968 C667.659459,38.2658968 667.124942,37.7516082 667.124942,37.122944 C667.124942,36.4944583 667.659459,35.9802144 668.312494,35.9802144 L670.687506,35.9802144 Z M663.56261,35.9802144 C664.215646,35.9802144 664.749977,36.4944583 664.749977,37.122944 C664.749977,37.7516082 664.215646,38.2658968 663.56261,38.2658968 L661.187413,38.2658968 C660.534378,38.2658968 660,37.7516082 660,37.122944 C660,36.4944583 660.534378,35.9802144 661.187413,35.9802144 L663.56261,35.9802144 Z M664.06252,25.6056072 L659.919075,25.6056072 C657.965873,25.6056072 656.367584,27.1601649 656.367584,29.059925 L656.367584,30.2114393 L683.595376,30.2114393 L683.595376,29.059925 C683.595376,27.1601649 681.997272,25.6056072 680.043884,25.6056072 L675.900671,25.6056072 L675.900671,26.7571214 C675.900671,27.3903148 675.367769,27.9086357 674.716763,27.9086357 C674.065757,27.9086357 673.532855,27.3903148 673.532855,26.7571214 L673.532855,25.6056072 L666.430104,25.6056072 L666.430104,26.7571214 C666.430104,27.3903148 665.897387,27.9086357 665.246197,27.9086357 C664.595191,27.9086357 664.06252,27.3903148 664.06252,26.7571214 L664.06252,25.6056072 Z" id="date"></path>
                </g>
            </g>
        </g>
    </g>
</svg>