<?xml version="1.0" encoding="UTF-8"?>
<svg width="28px" height="25px" viewBox="0 0 28 25" version="1.1" xmlns="http://www.w3.org/2000/svg" xmlns:xlink="http://www.w3.org/1999/xlink">
    <!-- Generator: Sketch 63 (92445) - https://sketch.com -->
    <title>关注</title>
    <desc>Created with Sketch.</desc>
    <g id="深色" stroke="none" stroke-width="1" fill="none" fill-rule="evenodd" opacity="0.649999976">
        <g id="a-6" transform="translate(-509.000000, -1129.000000)" fill="#FFFFFF" fill-rule="nonzero">
            <g id="分组" transform="translate(20.000000, 681.000000)">
                <g id="编组-13" transform="translate(134.000000, 442.000000)">
                    <path d="M375.105929,6 C379.474364,6 383,9.61980666 383,14.0769231 C383,16.1331494 382.248599,18.0809447 380.897473,19.5870642 L375.17474,25.4608426 L373.8974,26.7972924 C373.515804,27.1965461 372.882801,27.2108611 372.483548,26.8292658 C372.084294,26.4476705 372.069979,25.8146674 372.451574,25.4154137 L373.735567,24.0720698 L379.436557,18.2217813 C380.431767,17.1114533 381,15.6384687 381,14.0769231 C381,10.7127494 378.357824,8 375.105929,8 C372.934147,8 370.948723,9.24857897 369.889981,11.2232893 C369.511606,11.929014 368.498591,11.9259471 368.124496,11.2179444 C367.085724,9.25198869 365.086651,8 362.894071,8 C359.642176,8 357,10.7127494 357,14.0769231 C357,15.5394171 357.498055,16.909563 358.372498,17.9811268 L358.552369,18.1913973 L369.007,28.925 L370.353294,27.5436544 C370.738696,27.1480749 371.371808,27.139825 371.767387,27.5252278 C372.162967,27.9106305 372.171217,28.5437417 371.785814,28.9393213 L370.27436,30.4885132 C369.922507,30.8119546 369.476773,31 369.008661,31 C368.599063,31 368.206598,30.8560277 367.852705,30.5776479 L367.70346,30.4501411 L357.091879,19.5571543 C355.751523,18.0636704 355,16.1341581 355,14.0769231 C355,9.61980666 358.525636,6 362.894071,6 C365.271145,6 367.469022,7.08835637 368.954109,8.87863938 L369.011,8.95 L369.07362,8.87389516 C370.504213,7.15656902 372.572466,6.08792729 374.823616,6.00518367 L375.105929,6 Z" id="关注"></path>
                </g>
            </g>
        </g>
    </g>
</svg>