<?xml version="1.0" encoding="UTF-8"?>
<svg width="15px" height="24px" viewBox="0 0 15 24" version="1.1" xmlns="http://www.w3.org/2000/svg" xmlns:xlink="http://www.w3.org/1999/xlink">
    <!-- Generator: Sketch 63 (92445) - https://sketch.com -->
    <title>more</title>
    <desc>Created with Sketch.</desc>
    <g id="深色" stroke="none" stroke-width="1" fill="none" fill-rule="evenodd" opacity="0.600000024">
        <g id="a-7" transform="translate(-681.000000, -288.000000)" fill="#FFFFFF" fill-rule="nonzero">
            <g id="编组-18" transform="translate(20.000000, 247.000000)">
                <g id="合并形状" transform="translate(661.000000, 41.000000)">
                    <path d="M12.1009728,1.01107009 C12.6471437,0.514551086 13.4924109,0.554801904 13.9889299,1.10097281 C14.4523476,1.61073232 14.4481792,2.38103793 14.0015066,2.88516809 L13.8990272,2.98892991 L3.986,12 L13.8990272,21.0110701 C14.4087867,21.4744878 14.4778336,22.241704 14.0810859,22.785997 L13.9889299,22.8990272 C13.5255122,23.4087867 12.758296,23.4778336 12.214003,23.0810859 L12.1009728,22.9889299 L1.10097281,12.9889299 C0.554131797,12.4918017 0.519954234,11.6544932 0.998440121,11.1148425 L1.10097281,11.0110701 L12.1009728,1.01107009 Z" id="more" transform="translate(7.500005, 12.000000) scale(-1, 1) translate(-7.500005, -12.000000) "></path>
                </g>
            </g>
        </g>
    </g>
</svg>