<?xml version="1.0" encoding="UTF-8"?>
<svg width="27px" height="25px" viewBox="0 0 27 25" version="1.1" xmlns="http://www.w3.org/2000/svg" xmlns:xlink="http://www.w3.org/1999/xlink">
    <!-- Generator: Sketch 63 (92445) - https://sketch.com -->
    <title>短信</title>
    <desc>Created with Sketch.</desc>
    <g id="深色" stroke="none" stroke-width="1" fill="none" fill-rule="evenodd" opacity="0.649999976">
        <g id="a-6" transform="translate(-154.000000, -1129.000000)" fill="#FFFFFF" fill-rule="nonzero">
            <g id="分组" transform="translate(20.000000, 681.000000)">
                <g id="编组-13" transform="translate(134.000000, 442.000000)">
                    <g id="短信" transform="translate(0.000000, 6.000000)">
                        <path d="M22.9814039,0 C25.4769323,0 26.911383,1.41184096 26.9960279,3.89996443 L27,4.13636894 L27,16.6817864 C27,19.2461558 25.7391274,20.6731011 23.3229612,20.7572278 L23.0930642,20.7611744 L14.106,20.761 L8.59365349,24.6432817 C8.30781418,24.8435598 7.97665732,24.9625828 7.6343623,24.992502 L7.46244485,25 C7.12387043,25 6.79136648,24.9120726 6.50519391,24.750398 C5.94797456,24.4434982 5.57077286,23.887917 5.4783283,23.257162 C5.39824006,22.710715 5.77629853,22.2028078 6.32274552,22.1227196 C6.86919252,22.0426314 7.37709968,22.4206898 7.45718792,22.9671368 L7.46486588,22.9900296 L13.2149696,18.9435126 C13.3497887,18.8485892 13.5054376,18.7888468 13.6678299,18.7687468 L13.7906685,18.7611744 L23.0930642,18.7611744 C24.4659085,18.7611744 24.9603238,18.2908717 24.9976804,16.8650286 L25,16.6817864 L25,4.13636894 C25,2.65115025 24.4773236,2.04867383 23.1513542,2.00285207 L22.9814039,2 L4.01859608,2 C2.61527648,2 2.04599236,2.53559745 2.00269495,3.9543942 L2,4.13636894 L2,16.6817864 C2,18.1737186 2.45626859,18.717505 3.74186231,18.7586208 L3.90690791,18.7611744 L6.81392751,18.7611744 C7.4102859,18.7611744 7.87408613,19.2798148 7.80771504,19.8724684 L7.71727882,20.6800091 C7.65581286,21.2288627 7.16105103,21.6239686 6.61219733,21.5625026 C6.18095514,21.514208 5.84462873,21.1984194 5.75010534,20.799073 L5.743,20.761 L3.90690791,20.7611744 C1.44024443,20.7611744 0.0836999307,19.4011648 0.00375018457,16.9178781 L0,16.6817864 L0,4.13636894 C0,1.57532483 1.34711635,0.0916759137 3.78669298,0.0041095367 L4.01859608,0 L22.9814039,0 Z M7.69218741,8.87138016 C8.49229352,8.87138016 9.14273748,9.55060421 9.14273748,10.3860521 C9.14259787,11.2216166 8.48958508,11.8979552 7.69218741,11.8979552 C6.89199754,11.8979552 6.24166527,11.2188477 6.24166527,10.3860521 C6.24166527,9.55334396 6.89202546,8.87138016 7.69218741,8.87138016 Z M13.4968169,8.87138016 C14.3011392,8.87138016 14.9546546,9.55060421 14.9546546,10.3860521 C14.9546546,11.2216166 14.2982912,11.8979552 13.4968448,11.8979552 C12.6924108,11.8979552 12.0388954,11.2188477 12.0388954,10.3860521 C12.0388954,9.55334396 12.6925504,8.87138016 13.4968169,8.87138016 Z M19.3104373,8.87138016 C20.1145083,8.87138016 20.7681633,9.55060421 20.7681633,10.3860521 C20.7681633,11.2216166 20.1146479,11.8979552 19.3104373,11.8979552 C18.5060312,11.8979552 17.8548054,11.2188477 17.8548054,10.3860521 C17.8548054,9.55334396 18.5060312,8.87138016 19.3104373,8.87138016 Z" id="提问"></path>
                    </g>
                </g>
            </g>
        </g>
    </g>
</svg>