<?xml version="1.0" encoding="UTF-8"?>
<svg width="21px" height="24px" viewBox="0 0 21 24" version="1.1" xmlns="http://www.w3.org/2000/svg" xmlns:xlink="http://www.w3.org/1999/xlink">
    <!-- Generator: Sketch 63 (92445) - https://sketch.com -->
    <title>上升</title>
    <desc>Created with Sketch.</desc>
    <g id="深色" stroke="none" stroke-width="1" fill="none" fill-rule="evenodd">
        <g id="a-6" transform="translate(-83.000000, -967.000000)" fill="#FF3F77">
            <g id="分组" transform="translate(20.000000, 681.000000)">
                <g id="编组-6" transform="translate(63.000000, 245.000000)">
                    <g id="编组-4" transform="translate(0.000000, 30.000000)">
                        <path d="M19.7171284,20.0735736 L11.2959558,11.5020726 C10.6382664,10.8326425 9.57212914,10.8326425 8.91443966,11.5020726 L0.493267111,20.0735736 C-0.16442237,20.7430037 -0.16442237,21.8281728 0.493267111,22.4976029 C1.15095659,23.167033 2.21709381,23.167033 2.87478329,22.4976029 L8.42099267,16.8523867 L8.42099267,33.2856798 C8.42099267,34.2328351 9.17470286,35 10.1052468,35 C11.0357908,35 11.7895009,34.2328351 11.7895009,33.2856798 L11.7895009,16.8523867 L17.3357103,22.4976029 C17.6641299,22.8319185 18.0953073,22.9998918 18.5264848,22.9998918 C18.9576622,22.9998918 19.3888069,22.8327507 19.7172592,22.4976029 C20.3749487,21.8281728 20.3749487,20.7430037 19.7172592,20.0735736 L19.7171284,20.0735736 Z" id="上升"></path>
                    </g>
                </g>
            </g>
        </g>
    </g>
</svg>