<?xml version="1.0" encoding="UTF-8"?>
<svg width="25px" height="33px" viewBox="0 0 25 33" version="1.1" xmlns="http://www.w3.org/2000/svg" xmlns:xlink="http://www.w3.org/1999/xlink">
    <!-- Generator: Sketch 63 (92445) - https://sketch.com -->
    <title>voice</title>
    <desc>Created with Sketch.</desc>
    <g id="深色" stroke="none" stroke-width="1" fill="none" fill-rule="evenodd">
        <g id="a-7" transform="translate(-698.000000, -67.000000)" fill="#FFFFFF">
            <g id="分组-2" transform="translate(-0.000000, 0.000000)">
                <g id="分组">
                    <g id="voice_icon" transform="translate(698.000000, 67.000000)">
                        <path d="M23.1083584,15 C23.8768264,15 24.4995917,15.616785 24.5,16.377887 C24.5,22.465548 19.8548368,27.4957312 13.8912917,28.1812084 L13.8912917,28.1812084 L13.8912917,30.2438215 L23.1085333,30.2438215 C23.877118,30.2438215 24.5,30.8608376 24.5,31.6219396 C24.5,32.3829839 23.877118,33 23.1085333,33 L23.1085333,33 L1.89164163,33 C1.12305696,33 0.5,32.3829839 0.5,31.6219396 C0.5,30.8608376 1.12305696,30.2438215 1.89164163,30.2438215 L1.89164163,30.2438215 L11.108475,30.2438215 L11.108475,28.1812084 C5.14516317,27.4959045 0.5,22.465548 0.5,16.377887 C0.5,15.616785 1.12288197,15 1.89129167,15 C2.65970136,15 3.28246668,15.616785 3.28264166,16.377887 C3.28264166,21.4118833 7.4172621,25.5075298 12.4995917,25.5075298 C17.5822713,25.5075298 21.717125,21.4118833 21.717125,16.377887 C21.7172417,15.616785 22.340007,15 23.1083584,15 Z M12.5000874,0 C16.3598229,0 19.5,3.16609302 19.5,7.05752008 L19.5,7.05752008 L19.5,15.9423036 C19.5,19.8337894 16.3598229,23 12.5000874,23 C8.64035197,23 5.5,19.8337894 5.5,15.9423036 L5.5,15.9423036 L5.5,7.05752008 C5.5,3.16597549 8.64035197,0 12.5000874,0 Z M12.5000874,2.80371986 C10.1735446,2.80371986 8.28071852,4.71196778 8.28071852,7.05752008 L8.28071852,7.05752008 L8.28071852,15.9423036 C8.28071852,18.288091 10.1735446,20.1962214 12.5000874,20.1962214 C14.8266886,20.1962214 16.7192815,18.288091 16.7192815,15.9423036 L16.7192815,15.9423036 L16.7192815,7.05752008 C16.7192815,4.71196778 14.8266886,2.80371986 12.5000874,2.80371986 Z" id="voice"></path>
                    </g>
                </g>
            </g>
        </g>
    </g>
</svg>